<svg xmlns="http://www.w3.org/2000/svg" width="52" height="48" fill="none"><rect width="49.3333" height="33.3333" x="1.33333" y="7.33333" stroke="#F2F3F8" stroke-width="1.33333" rx="6"/><g clip-path="url(#a)"><path fill="#B22334" d="M2 8h48v2.66667H2z"/><path fill="#fff" d="M2 10.6667h48v2.66667H2z"/><path fill="#B22334" d="M2 13.3333h48v2.66667H2z"/><path fill="#fff" d="M2 16h48v2.66667H2z"/><path fill="#B22334" d="M2 18.6667h48v2.66667H2z"/><path fill="#fff" d="M2 21.3333h48v2.66667H2z"/><path fill="#B22334" d="M2 24h48v2.66667H2z"/><path fill="#fff" d="M2 26.6667h48v2.66667H2z"/><path fill="#B22334" d="M2 29.3333h48v2.66667H2z"/><path fill="#fff" d="M2 32h48v2.66667H2z"/><path fill="#B22334" d="M2 34.6667h48v2.66667H2z"/><path fill="#fff" d="M2 37.3333h48v2.66667H2z"/><path fill="#3C3B6E" d="M2 8h24v18.6667H2z"/><path fill="#fff" d="m4.66666 12.88.82406.5442-.31469.8788.82272-.543.82406.543-.31469-.8788.82406-.5442H6.31344L5.99875 12l-.31335.88H4.66666Zm2.66685 2.4242.82406.5443-.31469.8788.82273-.5431.82406.5431-.31469-.8788.82406-.5443H8.9803l-.31469-.88-.31336.88H7.33351Zm5.33369 0 .8241.5443-.3147.8788.8227-.5431.8241.5431-.3147-.8788.8241-.5443H14.314l-.3147-.88-.3133.88h-1.0188Zm5.3337 0 .8241.5443-.3147.8788.8227-.5431.8241.5431-.3147-.8788.8241-.5443h-1.0188l-.3147-.88-.3133.88h-1.0188ZM7.33351 20.1527l.82406.5443-.31469.8788.82273-.5431.82406.5431-.31469-.8788.82406-.5443H8.9803l-.31469-.88-.31336.88H7.33351Zm5.33369 0 .8241.5443-.3147.8788.8227-.5431.8241.5431-.3147-.8788.8241-.5443H14.314l-.3147-.88-.3133.88h-1.0188Zm5.3337 0 .8241.5443-.3147.8788.8227-.5431.8241.5431-.3147-.8788.8241-.5443h-1.0188l-.3147-.88-.3133.88h-1.0188ZM10.0004 12.88l.824.5442-.3147.8788.8228-.543.824.543-.3147-.8788.8241-.5442h-1.0187l-.3147-.88-.3134.88h-1.0187Zm5.3337 0 .824.5442-.3146.8788.8227-.543.824.543-.3147-.8788.8241-.5442h-1.0187l-.3147-.88-.3134.88h-1.0187Zm5.3337 0 .8241.5442-.3147.8788.8227-.543.8241.543-.3147-.8788.824-.5442h-1.0187l-.3147-.88-.3134.88h-1.0187ZM4.66666 17.7285l.82406.5442-.31469.8788.82272-.543.82406.543-.31469-.8788.82406-.5442H6.31344l-.31469-.88-.31335.88H4.66666Zm5.84304 1.423.8228-.543.824.543-.3147-.8788.8241-.5442h-1.0187l-.3147-.88-.3134.88h-1.0187l.824.5442-.3147.8788Zm4.8244-1.423.824.5442-.3146.8788.8227-.543.824.543-.3147-.8788.8241-.5442h-1.0187l-.3147-.88-.3134.88h-1.0187Zm5.3337 0 .8241.5442-.3147.8788.8227-.543.8241.543-.3147-.8788.824-.5442h-1.0187l-.3147-.88-.3134.88h-1.0187ZM4.66666 22.577l.82406.5442L5.17603 24l.82272-.543.82406.543-.31469-.8788.82406-.5442H6.31344l-.31469-.88-.31335.88H4.66666ZM10.5097 24l.8228-.543.824.543-.3147-.8788.8241-.5442h-1.0187l-.3147-.88-.3134.88h-1.0187l.824.5442-.3147.8788Zm4.8244-1.423.824.5442-.3146.8788.8227-.543.824.543-.3147-.8788.8241-.5442h-1.0187l-.3147-.88-.3134.88h-1.0187Zm5.3337 0 .8241.5442-.3147.8788.8227-.543.8241.543-.3147-.8788.824-.5442h-1.0187l-.3147-.88-.3134.88h-1.0187Z"/></g><defs><clipPath id="a"><rect width="48" height="32" x="2" y="8" fill="#fff" rx="5.33333"/></clipPath></defs></svg>