<svg width="341" height="302" viewBox="0 0 341 302" fill="none" xmlns="http://www.w3.org/2000/svg">
<path d="M118.246 257.367L115.098 264.669C114.598 265.821 113.706 266.683 112.689 267.162C111.673 267.636 110.547 267.71 109.474 267.334L108.401 266.937C108.021 266.789 107.626 266.664 107.237 266.538C106.453 266.292 105.684 266.014 104.895 265.784L102.53 265.107L100.147 264.509C96.9536 263.769 93.7212 263.227 90.461 262.889C83.946 262.213 77.3412 262.352 70.8621 263.357C64.3823 264.347 58.0205 266.152 51.9817 268.714C48.9621 269.99 46.0212 271.47 43.1951 273.126C41.785 273.959 40.3867 274.818 39.0287 275.739C38.3355 276.182 37.6761 276.665 37.0113 277.144L36.0113 277.862L35.1063 278.559C34.6589 278.905 34.1472 279.126 33.6206 279.257C33.0995 279.394 32.5411 279.414 31.9886 279.334C30.8839 279.177 29.7709 278.617 28.959 277.659L23.7962 271.603C22.979 270.645 22.6563 269.44 22.8237 268.233C22.9075 267.633 23.1085 267.032 23.4287 266.474C23.7492 265.921 24.2002 265.425 24.745 265L25.8509 264.155L27.0672 263.278C27.8818 262.696 28.6908 262.11 29.5286 261.57C31.1863 260.448 32.8847 259.399 34.6061 258.387C38.0546 256.372 41.6304 254.569 45.3081 253.012C52.6634 249.893 60.4025 247.693 68.3053 246.488C76.2023 245.272 84.2652 245.098 92.2201 245.919C96.1975 246.33 100.149 246.993 104.044 247.903L106.954 248.63L109.832 249.454C110.794 249.734 111.736 250.063 112.683 250.371C113.159 250.53 113.635 250.678 114.101 250.859L115.408 251.341C116.708 251.802 117.68 252.764 118.184 253.864C118.694 254.965 118.741 256.214 118.241 257.367" fill="#FFCC00"/>
<path d="M-116.538 224.932L-108.747 223.314C-106.272 222.824 -103.92 224.21 -103.344 226.375L-103.137 227.154C-103.046 227.511 -102.935 227.867 -102.831 228.226C-102.635 228.941 -102.403 229.648 -102.183 230.354C-101.723 231.765 -101.238 233.166 -100.692 234.549C-99.6217 237.32 -98.3928 240.027 -97.0084 242.654C-95.6342 245.288 -94.1002 247.845 -92.403 250.291C-90.7492 252.766 -88.9109 255.105 -86.9997 257.376C-83.1384 261.887 -78.7191 265.91 -73.935 269.415C-69.1407 272.913 -63.9596 275.887 -58.4725 278.175C-52.9966 280.48 -47.2678 282.185 -41.414 283.222C-35.557 284.224 -29.5879 284.569 -23.6573 284.259C-17.7261 283.967 -11.8435 282.895 -6.14912 281.237C-5.43879 281.019 -4.72154 280.831 -4.01918 280.596L-1.91903 279.862C-0.506332 279.409 0.849258 278.796 2.2322 278.25C2.92766 277.985 3.59293 277.659 4.26899 277.345L6.28983 276.405C6.95963 276.081 7.60444 275.716 8.26627 275.375L9.96802 274.475C11.8977 273.329 14.5677 274.111 15.9316 276.225L20.1753 282.95C21.5347 285.061 20.7095 287.942 18.3117 289.35L16.243 290.448C15.4405 290.865 14.6522 291.31 13.8355 291.699L11.3773 292.851C10.5589 293.233 9.7393 293.627 8.89519 293.949C7.21213 294.616 5.55365 295.355 3.83459 295.918L1.26582 296.813C0.405754 297.101 -0.466393 297.337 -1.33617 297.6C-8.28789 299.632 -15.4714 300.926 -22.7043 301.288C-29.9347 301.677 -37.2033 301.247 -44.3379 300.024C-51.4647 298.768 -58.4451 296.69 -65.1181 293.881C-71.7994 291.087 -78.1263 287.466 -83.9806 283.193C-89.8276 278.918 -95.2167 273.995 -99.9252 268.497C-102.255 265.729 -104.496 262.878 -106.503 259.871C-108.561 256.896 -110.418 253.788 -112.096 250.584C-113.782 247.382 -115.283 244.082 -116.589 240.702C-117.249 239.017 -117.846 237.302 -118.402 235.581C-118.675 234.718 -118.948 233.854 -119.196 232.981C-119.322 232.547 -119.455 232.114 -119.57 231.674L-119.825 230.721C-120.541 228.025 -118.981 225.411 -116.521 224.924" fill="#3B68FC"/>
<path d="M122.851 268.222L125.999 260.921C127.015 258.609 129.569 257.515 131.767 258.371L131.946 258.443C141.248 262.089 150.997 264.83 160.813 266.492L161.001 266.52C163.315 266.907 164.933 269.165 164.619 271.668L163.575 279.553C163.265 282.039 160.838 283.788 158.191 283.347L157.976 283.315C146.898 281.435 136.134 278.406 125.704 274.322L125.503 274.241C123.017 273.265 121.845 270.517 122.851 268.228" fill="#FF4059"/>
<path d="M172.269 280.442L172.852 272.509C173.049 270.001 175.111 268.078 177.462 268.213L181.382 268.312C182.779 268.348 184.178 268.299 185.574 268.297C188.368 268.242 191.165 268.122 193.951 267.885C199.523 267.438 205.07 266.657 210.553 265.538C221.514 263.305 232.204 259.732 242.309 254.928C252.415 250.125 261.918 244.066 270.558 236.966C274.877 233.413 278.977 229.599 282.826 225.546C283.785 224.527 284.756 223.528 285.665 222.462C286.58 221.407 287.54 220.388 288.41 219.297C289.286 218.212 290.218 217.162 291.061 216.046L292.342 214.388L293.306 213.145L293.456 212.935C294.827 211.028 297.627 210.631 299.696 212.058L306.227 216.595C308.301 218.017 308.715 220.933 307.149 223.105L306.978 223.336L305.899 224.74L304.457 226.608C303.509 227.862 302.466 229.045 301.479 230.263C300.492 231.492 299.422 232.645 298.391 233.828C297.365 235.021 296.272 236.154 295.196 237.296C290.865 241.856 286.25 246.147 281.396 250.14C271.685 258.127 261.002 264.934 249.651 270.328C238.3 275.727 226.293 279.74 213.976 282.25C207.818 283.507 201.583 284.39 195.315 284.885C192.184 285.143 189.042 285.284 185.896 285.346C184.325 285.35 182.75 285.402 181.182 285.364L178.825 285.309L177.054 285.264L176.766 285.251C174.095 285.104 172.087 282.944 172.284 280.436" fill="#3B68FC"/>
<path d="M311.09 209.405L304.232 205.372C303.148 204.736 302.398 203.753 302.031 202.737C301.658 201.705 301.661 200.623 302.137 199.637L302.501 198.874L303.004 197.78C303.331 197.04 303.658 196.284 303.984 195.507C304.631 193.958 305.264 192.331 305.92 190.649C306.577 188.966 307.257 187.225 307.985 185.459L310.064 180.477C312.68 174.095 314.932 167.565 316.801 160.925C320.549 147.655 322.679 133.944 323.218 120.169C323.752 106.399 322.706 92.5542 320.013 79.0313C318.679 72.2692 316.949 65.5789 314.847 59.0125C313.804 55.7263 312.635 52.4779 311.414 49.2586C310.785 47.6525 310.135 46.058 309.485 44.4582L308.452 42.0878L307.939 40.9024L307.682 40.3071L307.569 40.062C306.562 37.8982 307.579 35.2509 309.839 34.1491L317.009 30.6976C319.269 29.5958 322.009 30.6452 323.117 33.0387L323.241 33.3099L323.522 33.9574L324.089 35.2574L325.217 37.8578C325.928 39.6093 326.643 41.3552 327.333 43.113C328.675 46.6409 329.954 50.1985 331.098 53.7997C333.4 60.996 335.292 68.3233 336.757 75.7345C339.703 90.5562 340.859 105.733 340.27 120.837C339.681 135.941 337.332 150.984 333.227 165.533C331.18 172.804 328.718 179.962 325.853 186.947L323.759 191.967C323.108 193.538 322.475 195.16 321.819 196.847C321.163 198.53 320.487 200.271 319.74 202.059C319.366 202.955 318.982 203.858 318.572 204.766L317.943 206.133L317.472 207.109C316.855 208.384 315.779 209.308 314.611 209.72C313.426 210.132 312.17 210.041 311.09 209.399" fill="#FF4059"/>
<path d="M313.004 22.863L306.004 26.6368C303.785 27.8219 301.039 27.0925 299.876 25.0052L299.284 23.9515L297.273 20.6092C296.399 19.1104 295.442 17.6688 294.5 16.2158C294.024 15.4922 293.569 14.7569 293.083 14.0392L290.124 9.76631L288.582 7.6754C284.47 2.09793 280.039 -3.24087 275.311 -8.30479C270.589 -13.3743 265.535 -18.1246 260.238 -22.5919C258.938 -23.7352 257.563 -24.7897 256.217 -25.8776C255.537 -26.4158 254.872 -26.9654 254.181 -27.4925L250.019 -30.6011C249.319 -31.1118 248.598 -31.5949 247.893 -32.0947L245.762 -33.5773C245.404 -33.8217 245.057 -34.0825 244.689 -34.3103L243.673 -34.9661C241.668 -36.2629 241.117 -39.05 242.439 -41.1895L246.652 -47.9336C247.975 -50.0731 250.846 -50.6441 253.06 -49.2079L254.17 -48.4873C254.571 -48.2343 254.952 -47.9484 255.348 -47.6846L257.682 -46.0569C258.459 -45.5072 259.246 -44.9792 260.013 -44.4184L264.583 -41.0093C265.34 -40.432 266.071 -39.8322 266.818 -39.2384C268.296 -38.0449 269.804 -36.8901 271.232 -35.6356C277.039 -30.7392 282.583 -25.527 287.76 -19.9673C292.947 -14.4134 297.807 -8.56193 302.312 -2.44876L304.001 -0.156986L307.246 4.5287C307.778 5.3136 308.28 6.12127 308.801 6.91198C309.83 8.51011 310.878 10.0913 311.839 11.7299L314.04 15.3935L314.686 16.5514C315.976 18.8565 315.224 21.6832 313.004 22.863Z" fill="#FFCC00"/>
</svg>
